<?xml version="1.0" encoding="us-ascii" standalone="no"?><svg xmlns="http://www.w3.org/2000/svg" xmlns:xlink="http://www.w3.org/1999/xlink" contentStyleType="text/css" height="1004px" preserveAspectRatio="none" style="width:1083px;height:1004px;background:#FFFFFF;" version="1.1" viewBox="0 0 1083 1004" width="1083px" zoomAndPan="magnify"><defs/><g><text fill="#000000" font-family="Verdana" font-size="16" font-weight="bold" lengthAdjust="spacing" textLength="378" x="348.25" y="34.0859">MII Kerndatensatz Modul Molekulargenetik</text><text fill="#000000" font-family="Verdana" font-size="12" font-weight="bold" lengthAdjust="spacing" textLength="168" x="453.25" y="49.5098">Struktur der FHIR-Profile</text><text fill="#000000" font-family="Verdana" font-size="22" font-weight="bold" lengthAdjust="spacing" textLength="8" x="533.25" y="74.1475">&#160;</text><!--entity SR--><g id="elem_SR"><rect fill="#2C5282" height="75.752" rx="4" ry="4" style="stroke:#34495E;stroke-width:2.0;" width="129" x="12" y="99.7666"/><text fill="#FFFFFF" font-family="Verdana" font-size="12" font-style="italic" lengthAdjust="spacing" textLength="71" x="41" y="124.8311">&#171;Workflow&#187;</text><text fill="#FFFFFF" font-family="Verdana" font-size="12" font-weight="bold" lengthAdjust="spacing" textLength="103" x="25" y="145.415">ServiceRequest</text><text fill="#FFFFFF" font-family="Verdana" font-size="12" lengthAdjust="spacing" textLength="88" x="25" y="159.999">(Anforderung)</text></g><!--entity DR--><g id="elem_DR"><rect fill="#2C5282" height="75.752" rx="4" ry="4" style="stroke:#34495E;stroke-width:2.0;" width="139" x="249" y="99.7666"/><text fill="#FFFFFF" font-family="Verdana" font-size="12" font-style="italic" lengthAdjust="spacing" textLength="71" x="283" y="124.8311">&#171;Workflow&#187;</text><text fill="#FFFFFF" font-family="Verdana" font-size="12" font-weight="bold" lengthAdjust="spacing" textLength="113" x="262" y="145.415">DiagnosticReport</text><text fill="#FFFFFF" font-family="Verdana" font-size="12" lengthAdjust="spacing" textLength="97" x="262" y="159.999">(Befundbericht)</text></g><!--entity GS--><g id="elem_GS"><rect fill="#3A5F7D" height="61.168" rx="4" ry="4" style="stroke:#34495E;stroke-width:2.0;" width="121" x="177" y="289.7666"/><text fill="#FFFFFF" font-family="Verdana" font-size="12" font-style="italic" lengthAdjust="spacing" textLength="51" x="212" y="314.8311">&#171;Study&#187;</text><text fill="#FFFFFF" font-family="Verdana" font-size="12" font-weight="bold" lengthAdjust="spacing" textLength="95" x="190" y="335.415">GenomicStudy</text></g><!--entity GSA--><g id="elem_GSA"><rect fill="#3A5F7D" height="61.168" rx="4" ry="4" style="stroke:#34495E;stroke-width:2.0;" width="176" x="419.5" y="289.7666"/><text fill="#FFFFFF" font-family="Verdana" font-size="12" font-style="italic" lengthAdjust="spacing" textLength="51" x="482" y="314.8311">&#171;Study&#187;</text><text fill="#FFFFFF" font-family="Verdana" font-size="12" font-weight="bold" lengthAdjust="spacing" textLength="150" x="432.5" y="335.415">GenomicStudyAnalysis</text></g><!--entity FINDINGS--><g id="elem_FINDINGS"><rect fill="#5A8A8C" height="119.5039" rx="4" ry="4" style="stroke:#34495E;stroke-width:2.0;" width="157" x="311" y="451.7666"/><text fill="#FFFFFF" font-family="Verdana" font-size="12" font-style="italic" lengthAdjust="spacing" textLength="59" x="360" y="476.8311">&#171;Finding&#187;</text><text fill="#FFFFFF" font-family="Verdana" font-size="12" font-weight="bold" lengthAdjust="spacing" textLength="131" x="324" y="497.415">Genetische Befunde</text><text fill="#FFFFFF" font-family="Verdana" font-size="12" lengthAdjust="spacing" textLength="54" x="324" y="511.999">&#9472;&#9472;&#9472;&#9472;&#9472;&#9472;</text><text fill="#FFFFFF" font-family="Verdana" font-size="12" lengthAdjust="spacing" textLength="53" x="324" y="526.583">Variante</text><text fill="#FFFFFF" font-family="Verdana" font-size="12" lengthAdjust="spacing" textLength="53" x="324" y="541.167">Genotyp</text><text fill="#FFFFFF" font-family="Verdana" font-size="12" lengthAdjust="spacing" textLength="64" x="324" y="555.751">Haplotype</text></g><!--entity BIOMARKERS--><g id="elem_BIOMARKERS"><rect fill="#B87333" height="119.5039" rx="4" ry="4" style="stroke:#34495E;stroke-width:2.0;" width="172" x="518.5" y="451.7666"/><text fill="#FFFFFF" font-family="Verdana" font-size="12" font-style="italic" lengthAdjust="spacing" textLength="77" x="566" y="476.8311">&#171;Biomarker&#187;</text><text fill="#FFFFFF" font-family="Verdana" font-size="12" font-weight="bold" lengthAdjust="spacing" textLength="146" x="531.5" y="497.415">Molekulare Biomarker</text><text fill="#FFFFFF" font-family="Verdana" font-size="12" lengthAdjust="spacing" textLength="54" x="531.5" y="511.999">&#9472;&#9472;&#9472;&#9472;&#9472;&#9472;</text><text fill="#FFFFFF" font-family="Verdana" font-size="12" lengthAdjust="spacing" textLength="85" x="531.5" y="526.583">Mutationslast</text><text fill="#FFFFFF" font-family="Verdana" font-size="12" lengthAdjust="spacing" textLength="23" x="531.5" y="541.167">MSI</text><text fill="#FFFFFF" font-family="Verdana" font-size="12" lengthAdjust="spacing" textLength="24" x="531.5" y="555.751">PRS</text></g><!--entity IMPLICATIONS--><g id="elem_IMPLICATIONS"><rect fill="#8B6F9F" height="119.5039" rx="4" ry="4" style="stroke:#34495E;stroke-width:2.0;" width="176" x="534.5" y="672.7666"/><text fill="#FFFFFF" font-family="Verdana" font-size="12" font-style="italic" lengthAdjust="spacing" textLength="82" x="581.5" y="697.8311">&#171;Implication&#187;</text><text fill="#FFFFFF" font-family="Verdana" font-size="12" font-weight="bold" lengthAdjust="spacing" textLength="91" x="547.5" y="718.415">Implikationen</text><text fill="#FFFFFF" font-family="Verdana" font-size="12" lengthAdjust="spacing" textLength="54" x="547.5" y="732.999">&#9472;&#9472;&#9472;&#9472;&#9472;&#9472;</text><text fill="#FFFFFF" font-family="Verdana" font-size="12" lengthAdjust="spacing" textLength="150" x="547.5" y="747.583">Molekulare Konsequenz</text><text fill="#FFFFFF" font-family="Verdana" font-size="12" lengthAdjust="spacing" textLength="123" x="547.5" y="762.167">Diagnostische Impl.</text><text fill="#FFFFFF" font-family="Verdana" font-size="12" lengthAdjust="spacing" textLength="132" x="547.5" y="776.751">Therapeutische Impl.</text></g><!--entity TASKS--><g id="elem_TASKS"><rect fill="#6D8B95" height="104.9199" rx="4" ry="4" style="stroke:#34495E;stroke-width:2.0;" width="175" x="671" y="893.7666"/><text fill="#FFFFFF" font-family="Verdana" font-size="12" font-style="italic" lengthAdjust="spacing" textLength="44" x="736.5" y="918.8311">&#171;Task&#187;</text><text fill="#FFFFFF" font-family="Verdana" font-size="12" font-weight="bold" lengthAdjust="spacing" textLength="93" x="684" y="939.415">Empfehlungen</text><text fill="#FFFFFF" font-family="Verdana" font-size="12" lengthAdjust="spacing" textLength="54" x="684" y="953.999">&#9472;&#9472;&#9472;&#9472;&#9472;&#9472;</text><text fill="#FFFFFF" font-family="Verdana" font-size="12" lengthAdjust="spacing" textLength="149" x="684" y="968.583">Medikationsempfehlung</text><text fill="#FFFFFF" font-family="Verdana" font-size="12" lengthAdjust="spacing" textLength="103" x="684" y="983.167">Folgema&#223;nahme</text></g><!--link SR to DR--><!--reverse link SR to DR--><g id="link_SR_DR"><path d="M147.03,137.7666 C180.22,137.7666 214.71,137.7666 248.63,137.7666 " fill="none" id="SR-backto-DR" style="stroke:#34495E;stroke-width:3.0;"/><polygon fill="#34495E" points="141.03,137.7666,150.03,141.7666,146.03,137.7666,150.03,133.7666,141.03,137.7666" style="stroke:#34495E;stroke-width:3.0;"/><text fill="#000000" font-family="Verdana" font-size="11" lengthAdjust="spacing" textLength="50" x="170" y="128.8257">basedOn</text></g><!--link GS to GSA--><!--link GS to GSA--><g id="link_GS_GSA"><path d="M298.09,320.2666 C333.85,320.2666 373.74,320.2666 413.45,320.2666 " fill="none" id="GS-to-GSA-1" style="stroke:#34495E;stroke-width:2.0;"/><polygon fill="#34495E" points="419.45,320.2666,410.45,316.2666,414.45,320.2666,410.45,324.2666,419.45,320.2666" style="stroke:#34495E;stroke-width:2.0;"/><text fill="#000000" font-family="Verdana" font-size="11" font-weight="bold" lengthAdjust="spacing" textLength="64" x="326.75" y="298.3257">extension</text><text fill="#000000" font-family="Verdana" font-size="11" lengthAdjust="spacing" textLength="56" x="330.75" y="311.6943">[analysis]</text></g><!--link DR to GS--><!--link DR to GS--><g id="link_DR_GS"><path d="M301.72,176.1666 C286.61,209.8266 267.1665,253.1625 253.2465,284.1825 " fill="none" id="DR-to-GS-1" style="stroke:#34495E;stroke-width:2.0;"/><polygon fill="#34495E" points="250.79,289.6566,258.1241,283.0831,252.8371,285.0949,250.8253,279.8078,250.79,289.6566" style="stroke:#34495E;stroke-width:2.0;"/><text fill="#000000" font-family="Verdana" font-size="11" font-weight="bold" lengthAdjust="spacing" textLength="64" x="301.5" y="230.8257">extension</text><text fill="#000000" font-family="Verdana" font-size="11" lengthAdjust="spacing" textLength="94" x="286.5" y="244.1943">[genomic-study]</text></g><!--link GS to FINDINGS--><!--reverse link GS to FINDINGS--><g id="link_GS_FINDINGS"><path d="M287.6369,354.4074 C302.7369,365.6874 314.06,375.8666 326.5,390.7666 C341.58,408.8266 354.49,431.0866 364.63,451.5166 " fill="none" id="GS-backto-FINDINGS" style="stroke:#34495E;stroke-width:2.0;"/><polygon fill="#34495E" points="282.83,350.8166,287.6464,359.4074,286.8357,353.809,292.4342,352.9983,282.83,350.8166" style="stroke:#34495E;stroke-width:2.0;"/><text fill="#000000" font-family="Verdana" font-size="11" lengthAdjust="spacing" textLength="36" x="345.5" y="405.8257">partOf</text></g><!--link FINDINGS to BIOMARKERS--><!--link BIOMARKERS to IMPLICATIONS--><!--reverse link BIOMARKERS to IMPLICATIONS--><g id="link_BIOMARKERS_IMPLICATIONS"><path d="M609.8611,578.0065 C612.4211,609.1765 615.06,641.2866 617.63,672.4566 " fill="none" id="BIOMARKERS-backto-IMPLICATIONS" style="stroke:#34495E;stroke-width:1.5;"/><polygon fill="#34495E" points="609.37,572.0266,606.1201,581.3238,609.7793,577.0098,614.0933,580.669,609.37,572.0266" style="stroke:#34495E;stroke-width:1.5;"/><text fill="#000000" font-family="Verdana" font-size="11" lengthAdjust="spacing" textLength="72" x="617.5" y="626.8257">derivedFrom</text></g><!--link IMPLICATIONS to TASKS--><!--reverse link IMPLICATIONS to TASKS--><g id="link_IMPLICATIONS_TASKS"><path d="M602.9661,799.0096 C599.9061,819.3196 601.39,835.5666 611.5,853.7666 C624.86,877.8166 647.44,896.3566 670.96,910.2666 " fill="none" id="IMPLICATIONS-backto-TASKS" style="stroke:#34495E;stroke-width:1.5;"/><polygon fill="#34495E" points="603.86,793.0766,598.5638,801.3802,603.1151,798.0208,606.4745,802.5721,603.86,793.0766" style="stroke:#34495E;stroke-width:1.5;"/><text fill="#000000" font-family="Verdana" font-size="11" lengthAdjust="spacing" textLength="97" x="615.5" y="847.8257">reasonReference</text></g><!--link DR to FINDINGS--><g id="link_DR_FINDINGS"><path d="M248.96,169.0066 C173.06,206.6166 67.79,275.1766 111.5,350.7666 C122.88,370.4366 227.4666,427.3187 305.6266,467.9587 " fill="none" id="DR-to-FINDINGS" style="stroke:#34495E;stroke-width:1.5;"/><polygon fill="#34495E" points="310.95,470.7266,304.8102,463.0258,306.5138,468.42,301.1196,470.1236,310.95,470.7266" style="stroke:#34495E;stroke-width:1.5;"/><text fill="#000000" font-family="Verdana" font-size="11" lengthAdjust="spacing" textLength="32" x="115.5" y="324.8257">result</text></g><!--link DR to BIOMARKERS--><g id="link_DR_BIOMARKERS"><path d="M388.23,151.6466 C460.57,169.1366 570.04,208.1166 620.5,289.7666 C650.33,338.0366 642.1407,398.2839 628.4307,445.5739 " fill="none" id="DR-to-BIOMARKERS" style="stroke:#34495E;stroke-width:1.5;"/><polygon fill="#34495E" points="626.76,451.3366,633.1078,443.8063,628.1522,446.5343,625.4242,441.5787,626.76,451.3366" style="stroke:#34495E;stroke-width:1.5;"/><text fill="#000000" font-family="Verdana" font-size="11" lengthAdjust="spacing" textLength="32" x="642.5" y="324.8257">result</text></g><!--link DR to IMPLICATIONS--><g id="link_DR_IMPLICATIONS"><path d="M388.02,142.4966 C478.14,151.6466 630.83,182.9766 690.5,289.7666 C764.93,422.9766 769.12,494.0766 705.5,632.7666 C699.09,646.7266 693.8502,655.5678 684.2202,667.9678 " fill="none" id="DR-to-IMPLICATIONS" style="stroke:#34495E;stroke-width:1.5;"/><polygon fill="#34495E" points="680.54,672.7066,689.2195,668.0519,683.6068,668.7576,682.9011,663.145,680.54,672.7066" style="stroke:#34495E;stroke-width:1.5;"/><text fill="#000000" font-family="Verdana" font-size="11" lengthAdjust="spacing" textLength="32" x="746.5" y="405.8257">result</text></g><!--link DR to TASKS--><g id="link_DR_TASKS"><path d="M388,144.2466 C549.71,158.8966 937.5,205.8566 937.5,319.2666 C937.5,319.2666 937.5,319.2666 937.5,733.7666 C937.5,799.7866 890.7551,852.0834 843.0251,889.8534 " fill="none" id="DR-to-TASKS" style="stroke:#34495E;stroke-width:1.5;"/><polygon fill="#34495E" points="838.32,893.5766,847.8597,891.1285,842.2409,890.4739,842.8954,884.855,838.32,893.5766" style="stroke:#34495E;stroke-width:1.5;"/><text fill="#000000" font-family="Verdana" font-size="11" lengthAdjust="spacing" textLength="55" x="979.5" y="509.8257">extension</text><text fill="#000000" font-family="Verdana" font-size="11" lengthAdjust="spacing" textLength="131" x="941.5" y="523.1943">[recommended-action]</text></g><!--reverse link SR to GS--><g id="link_SR_GS"><path d="M94.17,181.4164 C104.74,204.3664 117.93,228.0266 137.5,249.7666 C151.15,264.9266 168.72,278.5366 185.31,289.6066 " fill="none" id="SR-backto-GS" style="stroke:#34495E;stroke-width:1.5;"/><polygon fill="#34495E" points="91.66,175.9666,91.7918,185.8146,93.7517,180.5081,99.0582,182.4679,91.66,175.9666" style="stroke:#34495E;stroke-width:1.5;"/><text fill="#000000" font-family="Verdana" font-size="11" lengthAdjust="spacing" textLength="97" x="141.5" y="237.3257">reasonReference</text></g><!--reverse link GS to BIOMARKERS--><g id="link_GS_BIOMARKERS"><path d="M303.8144,348.034 C334.0244,360.684 365.33,374.5266 397.5,390.7666 C438.01,411.2166 481.64,436.0766 518.36,457.8466 " fill="none" id="GS-backto-BIOMARKERS" style="stroke:#34495E;stroke-width:2.0;"/><polygon fill="#34495E" points="298.28,345.7166,305.0366,352.8824,302.892,347.6478,308.1265,345.5032,298.28,345.7166" style="stroke:#34495E;stroke-width:2.0;"/><text fill="#000000" font-family="Verdana" font-size="11" lengthAdjust="spacing" textLength="36" x="435.5" y="405.8257">partOf</text></g><!--reverse link GS to IMPLICATIONS--><g id="link_GS_IMPLICATIONS"><path d="M227.0224,356.7789 C213.7824,407.0689 196.71,504.2766 242.5,571.7666 C308.01,668.3166 444.15,706.7866 534.42,721.9866 " fill="none" id="GS-backto-IMPLICATIONS" style="stroke:#34495E;stroke-width:2.0;"/><polygon fill="#34495E" points="228.55,350.9766,222.3904,358.6616,227.277,355.8118,230.1268,360.6984,228.55,350.9766" style="stroke:#34495E;stroke-width:2.0;"/><text fill="#000000" font-family="Verdana" font-size="11" lengthAdjust="spacing" textLength="36" x="246.5" y="516.3257">partOf</text></g><!--reverse link FINDINGS to IMPLICATIONS--><g id="link_FINDINGS_IMPLICATIONS"><path d="M456.9218,576.136 C490.0818,607.306 526.23,641.2866 559.4,672.4566 " fill="none" id="FINDINGS-backto-IMPLICATIONS" style="stroke:#34495E;stroke-width:1.5;"/><polygon fill="#34495E" points="452.55,572.0266,456.3681,581.1053,456.1932,575.4511,461.8473,575.2762,452.55,572.0266" style="stroke:#34495E;stroke-width:1.5;"/><text fill="#000000" font-family="Verdana" font-size="11" lengthAdjust="spacing" textLength="72" x="516.5" y="626.8257">derivedFrom</text></g><!--SRC=[XLRRRjj647tdLqoL1pT2bSHMb2Y6BO2ofPZmHO8ejoWYFwp8aRGGkSlkBgt6HO5-HD_xCVsJVabdbxgGifpOXY0FprnsvinP_c0Mc29a2UF2qqikCgPO2bCMBUTAvYA-a8bKi5fmWwNdUi5YkU9Y3ZEMwFAJZCMnjJTBDiN4KcC6xNSbev0nMcFhdUSTmMqGG94gZ5n53S17591AXQ3pgKdAIHH6XebvWl271_JJhPPxTlQBLCjP8bUT3hmwkMYTj4yEu_fSs6ejhEMt_VR5OLYGPWcFcE5IM6Yx-w7_gNyOskKoPMg9oWAxxO_DPlCmC3Hv_DM2cdwh__7oC6ZCzD9YFboskvzQ3jENmfI7uloaYb4LrbVDz-y_jNeb-tZ1ewL0hQ7emgX8e0GgQ6zZXlm9uVZ4-zChDPef9LVh9ZyFlmjy_AQr5-Yu6aX8yyAmu5NVjx_VFCXUNCE93t2coN9w_A5pDkrO_boZ4Z4pA3GpJt0hupoXpmINUSBK70KQlZnxE-sSlRMEdObO1pZfX4RbIvCheEJGlmf6ZQ6ICvxW5cevUdv-3ZV-huFxCOJZqVt5-7xKiqPwTAyjvnSyZecphcaQZ8I8obOoWKngRibZGLCq1fMDDvOP4F8KDcprThokrUiXgaSUuGX_or6RUdqYVlJ5p3Ke5_FNDM0QmX6KoLuDSCdPN4XjU3J2JAeYH1TdrFafAXujJ17aSYy81MryASxoeFXyOHeTmjYAGwGJnKNHZhzqmZIJ0eNHrToVKSYKHmvKhxiqdqFOilvbi2zOybLplNNoIruKubbbX702GbQAvaeRJ3NrpgthyxA81Pea1ef6e6tAVt__jVSt4JypnPamE16sElCrcuWhbYNs6xhA-i7TPN3d3hLLaMgoBVSesKOLNaftcvkYteHfG_-6mKGCHw7Br0q6j_xekZUokKhwKitcD6hfWg1uCSskf6jAPgabdYPYonJN6HlfpKIC5wXOXddPwke9ReStmOK_3WPtjgAAEDfHTAKnCYr6OGLiRmQzD9lX8Y4EVwDEZDTdqRY5JqHV9dDCsR__2BP8Yp6C_V3QLb4evMPDXuCmiFNHWDo6NfOeJHUNSBofq6bjtKpLsuxt6U5su_1Aata6AtV9gxHiFwSxWgsSEabhIgmhv99DPMv0ao5cYhOEPwXGHAYz8_UyTiN52ha-1J-Xrev8Y6Mk8b8WBPE4T91CpkM9lZxbCAI6qgO2qHvw8Y859Y621PkYA0PxzmxMeQV52EMCRAS0DPUWl5RR54Sp6UNw21vHhP3sIVm4UGenHt3XTKuoWz1JI_iIG4EqXQnFyiJjvphriUTjXkUJiletCEhT50sx2eQXco8zlx3l0wkDNhgnciqjTDvyI71cUqyATWgrATCO3qJD-lKL7MTV49t_tk2jeqAT9wPMVboQz650PS9xa5A99plwMLIzZh_R2ujQQbVXoxnGmeQsWlTGIL0GdNos7eIdnP9fQliUDrXa9_FWZbk8iyAacDQ2PxfWUxcIae8UgeMjbPWYMjSyspPM8TDIZ3PyT1c7J9d1h9eIViopbQKkNOLbZNzTtgvoHIv7qPdCnQjLL-mxsBqj-mxQti0a6djTgefRex7h-w5JbxHFGyG4tUxs7O8_OWmpIxdrrQ21bdXt2-XT0soAVUwi8rZELXhmNQptFm00]--></g></svg>